<?xml version="1.0" encoding="UTF-8" standalone="no"?>
<svg
   xmlns:dc="http://purl.org/dc/elements/1.1/"
   xmlns:cc="http://creativecommons.org/ns#"
   xmlns:rdf="http://www.w3.org/1999/02/22-rdf-syntax-ns#"
   xmlns:svg="http://www.w3.org/2000/svg"
   xmlns="http://www.w3.org/2000/svg"
   viewBox="0 0 1122.52 793.70135"
   height="793.70135"
   width="1122.52"
   xml:space="preserve"
   id="svg2"
   version="1.1"><metadata
     id="metadata8"><rdf:RDF><cc:Work
         rdf:about=""><dc:format>image/svg+xml</dc:format><dc:type
           rdf:resource="http://purl.org/dc/dcmitype/StillImage" /></cc:Work></rdf:RDF></metadata><defs
     id="defs6"><clipPath
       id="clipPath122"
       clipPathUnits="userSpaceOnUse"><path
         id="path120"
         d="M 0,595.276 H 841.89 V 0 H 0 Z" /></clipPath></defs><g
     transform="matrix(1.3333333,0,0,-1.3333333,0,793.70133)"
     id="g10"><g
       transform="translate(644.5303,289.6252)"
       id="g12"><path
         id="path14"
         style="fill:#232323;fill-opacity:1;fill-rule:nonzero;stroke:none"
         d="m 0,0 -5.206,9.028 h -0.01 v 0.01 l -5.206,9.017 -5.205,9.028 h -0.011 l -5.216,-9.028 5.216,-9.027 -5.206,-9.028 -5.216,-9.027 -5.215,-9.028 h 10.421 l 5.216,9.028 L -10.422,0 -5.216,-9.027 0,-18.055 h 10.433 l -5.216,9.028 z" /></g><g
       transform="translate(634.1143,325.7355)"
       id="g16"><path
         id="path18"
         style="fill:#232323;fill-opacity:1;fill-rule:nonzero;stroke:none"
         d="M 0,0 5.205,9.028 H -5.217 L -0.011,0 Z" /></g><g
       transform="translate(477.7559,325.7355)"
       id="g20"><path
         id="path22"
         style="fill:#232323;fill-opacity:1;fill-rule:nonzero;stroke:none"
         d="M 0,0 5.206,9.028 H -5.216 L -0.01,0 Z" /></g><g
       transform="translate(363.0854,289.6252)"
       id="g24"><path
         id="path26"
         style="fill:#232323;fill-opacity:1;fill-rule:nonzero;stroke:none"
         d="M 0,0 5.206,9.028 H -5.216 Z" /></g><g
       transform="translate(227.5713,289.6252)"
       id="g28"><path
         id="path30"
         style="fill:#232323;fill-opacity:1;fill-rule:nonzero;stroke:none"
         d="M 0,0 5.206,9.028 H -5.216 Z" /></g><g
       transform="translate(102.479,289.6252)"
       id="g32"><path
         id="path34"
         style="fill:#232323;fill-opacity:1;fill-rule:nonzero;stroke:none"
         d="M 0,0 5.216,9.028 H -5.206 Z" /></g><g
       transform="translate(550.7187,289.6252)"
       id="g36"><path
         id="path38"
         style="fill:#232323;fill-opacity:1;fill-rule:nonzero;stroke:none"
         d="m 0,0 5.206,-9.027 h 0.01 L 10.422,0 Z" /></g><g
       transform="translate(185.874,343.7907)"
       id="g40"><path
         id="path42"
         style="fill:#232323;fill-opacity:1;fill-rule:nonzero;stroke:none"
         d="m 0,0 h -10.422 -0.01 l -5.206,-9.027 h 10.422 z" /></g><g
       transform="translate(456.9023,343.7907)"
       id="g44"><path
         id="path46"
         style="fill:#232323;fill-opacity:1;fill-rule:nonzero;stroke:none"
         d="m 0,0 h -10.422 l 5.206,-9.027 H 5.206 Z" /></g><g
       transform="translate(701.8711,334.7634)"
       id="g48"><path
         id="path50"
         style="fill:#232323;fill-opacity:1;fill-rule:nonzero;stroke:none"
         d="m 0,0 5.206,-9.028 5.216,-9.027 5.216,9.017 -0.01,0.01 L 10.422,0 H 20.844 31.266 L 26.06,9.027 H 15.638 15.628 5.206 -5.206 -5.216 -15.638 L -10.422,0 Z" /></g><g
       transform="translate(613.2598,325.7258)"
       id="g52"><path
         id="path54"
         style="fill:#232323;fill-opacity:1;fill-rule:nonzero;stroke:none"
         d="M 0,0 5.217,-9.018 10.433,0.01 5.217,9.038 0.011,18.065 H 0 -10.422 -20.844 -31.266 -31.275 l -5.206,-9.027 -5.206,-9.028 -5.216,-9.028 5.206,-9.027 5.216,-9.028 5.206,-9.028 -5.206,-9.027 h -10.422 l -5.216,-9.027 h 10.422 10.431 l 5.206,9.027 h 0.011 l 5.205,9.027 -5.205,9.028 h -0.011 v 0.01 l -5.206,9.018 -5.205,9.027 h -0.01 v 0.01 l 5.206,9.018 h 0.009 l 5.206,9.028 h 10.433 10.421 L 0,0.01 Z" /></g><g
       transform="translate(425.627,307.6804)"
       id="g56"><path
         id="path58"
         style="fill:#232323;fill-opacity:1;fill-rule:nonzero;stroke:none"
         d="m 0,0 h -10.422 l -5.216,-9.027 h 10.422 v 0.009 l 0.009,-0.009 H 5.216 15.638 v 0.009 L 20.843,0 H 10.432 Z" /></g><g
       transform="translate(394.3511,289.6154)"
       id="g60"><path
         id="path62"
         style="fill:#232323;fill-opacity:1;fill-rule:nonzero;stroke:none"
         d="m 0,0 v 0.01 l -5.206,9.028 h -0.01 l -5.206,9.017 v 0.01 l -5.216,9.028 -5.206,9.017 v 0.01 l -5.216,9.028 -5.206,9.027 -5.215,-9.027 -5.207,-9.028 -5.216,-9.027 -5.205,-9.028 h -0.011 l -5.205,-9.027 h -0.01 l -5.206,-9.028 -5.206,-9.028 h -0.01 -10.412 l 5.206,9.028 5.216,9.028 5.206,9.017 v 0.01 l -5.216,9.028 -5.206,9.017 v 0.01 h -0.01 l -5.206,9.028 -5.206,9.027 h -0.01 -10.422 -10.412 -0.01 -10.422 -10.422 -10.421 l 5.206,-9.027 5.206,-9.028 h 0.009 10.422 l -5.206,9.028 h 10.412 0.011 10.411 0.01 10.422 l 5.206,-9.028 h 0.01 l 5.206,-9.027 h 0.01 l 5.206,-9.028 -5.216,-9.018 V 9.038 L -83.385,0.01 h -0.01 l -5.206,-9.028 h -10.422 -10.421 -0.011 -10.421 l 5.215,9.028 5.206,9.028 h 0.011 l 5.205,9.027 -5.205,9.028 h -0.011 -10.421 l 5.206,-9.028 -5.206,-9.018 V 9.038 l -5.216,-9.028 -5.206,-9.028 -5.216,9.028 -5.206,9.028 -5.216,9.027 -5.206,9.028 -5.216,9.027 -5.216,9.028 -5.206,9.027 -5.206,-9.027 -5.216,-9.028 v -0.01 l -5.215,-9.017 -5.207,-9.028 -0.009,-0.01 -5.206,-9.017 -5.206,-9.028 h -0.011 V 0 l -5.205,-9.018 h -0.01 -10.413 -0.009 l 5.216,9.028 5.206,9.028 -5.206,9.017 v 0.01 h -0.01 l -5.206,9.028 h -10.422 -10.422 -0.01 -10.412 -0.01 l -5.206,9.017 v 0.01 l 5.216,9.028 h 10.422 l 5.206,9.027 h -10.412 -0.01 -10.422 l -5.216,-9.027 -5.206,-9.028 5.216,-9.027 5.206,-9.028 h 10.422 10.432 10.412 0.01 l 5.206,-9.027 -5.206,-9.028 -5.216,-9.028 h -10.422 -10.422 -0.01 -10.422 l -5.206,9.028 -5.215,9.028 -5.207,9.027 h -0.009 l -5.206,9.028 -5.216,9.027 -5.206,9.028 -5.216,9.027 -5.216,-9.027 -5.206,-9.028 h -0.01 l -5.206,-9.017 v -0.01 l -5.216,-9.028 -5.206,-9.018 V 9.038 l -5.216,-9.028 -5.206,-9.028 h -0.01 l -5.205,-9.017 v -0.01 h 0.009 10.412 l 5.216,9.027 5.216,9.028 5.206,9.028 5.216,9.027 5.206,9.028 h 0.01 l 5.206,9.017 5.206,-9.017 5.216,-9.028 v -0.01 l 5.205,-9.017 -5.205,-9.028 h 10.422 0.009 l -0.009,-0.01 5.216,-9.018 5.206,-9.027 h 10.431 10.422 10.432 10.412 0.01 10.422 10.421 l 5.206,9.027 h 0.011 l 5.206,9.028 h 10.421 l -5.205,9.028 5.215,9.027 5.206,9.028 5.216,9.027 5.206,-9.017 0.01,-0.01 5.206,-9.028 5.216,-9.018 V 9.038 h -0.01 l -5.206,-9.028 h 10.432 l 5.206,-9.028 5.206,-9.017 0.01,-0.01 h 10.421 10.422 10.422 10.422 10.432 10.422 10.422 v 0.01 l 5.206,9.017 h 0.01 l 5.205,9.028 h 10.432 l -5.216,9.028 v 0.009 l 5.207,9.018 5.216,9.028 v 0.01 l 5.205,9.017 h 0.01 l 5.206,-9.027 h 0.01 l 5.206,-9.028 5.216,-9.027 5.206,-9.028 5.216,-9.028 L 0,-18.045 h 0.01 10.412 l -5.206,9.027 z" /></g><g
       transform="translate(535.0811,280.5978)"
       id="g64"><path
         id="path66"
         style="fill:#232323;fill-opacity:1;fill-rule:nonzero;stroke:none"
         d="M 0,0 -5.206,9.027 0,18.055 l 5.216,9.028 5.206,9.027 -5.206,9.018 v 0.01 H 5.206 L 0,54.166 -5.206,63.193 h -0.01 -10.422 -10.422 -10.421 l -5.207,-9.027 -5.215,-9.028 v -0.01 l -5.216,-9.018 -5.206,-9.027 -0.01,-0.01 v 0.01 l -5.206,9.027 h -0.01 l -5.206,9.018 v 0.01 h -10.422 l 5.216,-9.028 5.206,-9.027 5.216,-9.028 -5.206,-9.028 h -0.01 V 9.018 L -72.963,0 -78.179,-9.027 h 10.422 l 5.216,9.027 5.206,9.027 5.216,9.028 5.216,9.028 5.206,9.027 5.216,9.028 5.206,9.028 h 10.421 10.432 l 5.206,-9.028 h 0.01 L 0,36.11 l -5.206,-9.027 -0.01,-0.01 -5.206,-9.018 -5.206,-9.028 5.206,-9.027 5.206,-9.018 0.01,-0.009 H 5.216 15.638 L 10.422,0 Z" /></g><g
       transform="translate(733.1367,280.5978)"
       id="g68"><path
         id="path70"
         style="fill:#232323;fill-opacity:1;fill-rule:nonzero;stroke:none"
         d="m 0,0 h -10.412 -0.01 -10.422 l 5.216,9.027 -5.216,9.028 v 0.01 l -5.206,9.018 -5.216,9.027 h -0.009 l -5.206,-9.027 5.215,-9.028 L -26.06,9.027 -31.266,0 h -10.422 -0.009 -10.422 -10.422 l -5.216,9.018 v 0.009 l -5.206,9.028 h -0.011 l -5.205,9.018 v 0.01 l -5.217,9.027 5.217,9.028 5.216,9.028 5.206,9.027 h -10.422 l -5.206,-9.027 -5.216,-9.028 v -0.01 l -5.206,-9.018 5.206,-9.027 5.216,-9.028 5.206,-9.028 5.216,-9.027 5.206,-9.027 h 0.01 10.412 10.432 10.422 10.431 10.412 0.01 10.422 10.422 L 0.01,0 Z" /></g><g
       transform="translate(504.7209,332.8281)"
       id="g72"><path
         id="path74"
         style="fill:#232323;fill-opacity:1;fill-rule:nonzero;stroke:none"
         d="M 0,0 H 0.001 L 0,0.001 Z" /></g><g
       transform="translate(524.6523,330.7546)"
       id="g76"><path
         id="path78"
         style="fill:#232323;fill-opacity:1;fill-rule:nonzero;stroke:none"
         d="M 0,0 H 0.014 L -1.145,2.006 H -1.158 L -1.172,2.03 -3.482,2.02 -3.475,2.006 h -13.934 -2.317 l -0.033,-0.057 h -0.01 l -1.16,-2.011 -34.091,-59.122 h 2.316 l 34.097,59.132 0.03,0.052 h 0.01 16.251 l 8.108,-14.043 -14.468,-25.091 -1.157,-2.007 1.158,-2.007 9.259,-16.036 H 2.9 l -10.418,18.044 14.468,25.09 1.157,2.008 -1.158,2.006 z" /></g><g
       transform="translate(608.0156,330.7785)"
       id="g80"><path
         id="path82"
         style="fill:#232323;fill-opacity:1;fill-rule:nonzero;stroke:none"
         d="m 0,0 -1.143,1.98 h -2.316 -13.883 -2.316 l -1.158,-2.006 h 0.014 l -0.037,-0.064 -6.913,-11.975 -1.159,-2.006 1.159,-2.006 14.485,-25.09 -10.416,-18.041 h 2.317 l 9.258,16.034 1.158,2.006 -1.158,2.007 -14.486,25.09 8.077,13.991 0.032,0.054 h 16.184 0.003 L 8.136,-18.098 9.294,-16.091 0.003,0 Z" /></g><g
       transform="translate(695.4951,305.6721)"
       id="g84"><path
         id="path86"
         style="fill:#232323;fill-opacity:1;fill-rule:nonzero;stroke:none"
         d="m 0,0 -1.158,-2.006 8.107,-14.043 -2.857,-4.95 -0.033,-0.058 h -26.641 l -18.527,32.092 15.636,27.084 h -2.316 l -14.479,-25.078 -1.158,-2.006 1.158,-2.007 17.41,-30.153 1.118,-1.937 h 2.317 24.333 2.317 l 1.158,2.005 h -0.01 l 0.039,0.068 1.694,2.933 1.159,2.007 -1.159,2.006 z" /></g><g
       transform="translate(701.8643,330.7477)"
       id="g88"><path
         id="path90"
         style="fill:#232323;fill-opacity:1;fill-rule:nonzero;stroke:none"
         d="M 0,0 -1.158,2.006 H -3.475 -9.259 L -8.101,0 h 5.785 l 10.427,-18.06 1.159,2.006 z" /></g><g
       transform="translate(634.1064,285.6017)"
       id="g92"><path
         id="path94"
         style="fill:#232323;fill-opacity:1;fill-rule:nonzero;stroke:none"
         d="m 0,0 -1.158,-2.006 -6.944,-12.025 h 2.317 L 0,-4.012 5.785,-14.031 H 8.102 L 1.158,-2.006 Z" /></g><g
       transform="translate(364.2422,319.7184)"
       id="g96"><path
         id="path98"
         style="fill:#232323;fill-opacity:1;fill-rule:nonzero;stroke:none"
         d="M 0,0 -1.158,2.007 -2.316,0 l -11.001,-19.053 -1.158,-2.006 1.158,-2.006 1.158,2.006 11.001,19.053 26.64,-46.142 h 2.317 z" /></g><g
       transform="translate(342.2266,285.5988)"
       id="g100"><path
         id="path102"
         style="fill:#232323;fill-opacity:1;fill-rule:nonzero;stroke:none"
         d="m 0,0 -8.1,-14.028 h 2.317 L 2.316,0 3.475,2.006 H 1.158 Z" /></g><g
       transform="translate(101.3257,319.7184)"
       id="g104"><path
         id="path106"
         style="fill:#232323;fill-opacity:1;fill-rule:nonzero;stroke:none"
         d="M 0,0 1.158,2.007 2.316,0 l 11,-19.053 1.159,-2.006 -1.159,-2.006 -1.158,2.006 -11,19.053 -26.64,-46.142 h -2.317 z" /></g><g
       transform="translate(123.3413,285.5988)"
       id="g108"><path
         id="path110"
         style="fill:#232323;fill-opacity:1;fill-rule:nonzero;stroke:none"
         d="M 0,0 8.1,-14.028 H 5.783 L -2.316,0 -3.475,2.006 h 2.317 z" /></g><g
       transform="translate(317.9092,309.695)"
       id="g112"><path
         id="path114"
         style="fill:#232323;fill-opacity:1;fill-rule:nonzero;stroke:none"
         d="m 0,0 -10.996,19.044 -1.158,2.007 0.006,0.008 h -0.011 l -1.158,2.006 h -2.316 -22.012 -2.316 l 1.158,-2.006 2.897,-5.018 h 2.317 l -2.897,5.018 h 22.011 l 1.163,-2.015 1.158,-2.006 10.996,-19.044 -11.006,-19.063 -1.158,-2.006 -1.162,-2.012 h -21.991 l 12.157,21.057 1.159,2.006 -1.159,2.006 -4.062,7.037 h -2.317 l 5.221,-9.043 -13.316,-23.063 -1.158,-2.006 h 2.317 21.991 2.316 l 1.159,2.006 h 0.007 l -0.004,0.006 1.158,2.006 L 0,-4.012 1.158,-2.006 Z" /></g><g
       id="g116"><g
         clip-path="url(#clipPath122)"
         id="g118"><g
           transform="translate(228.7246,319.7219)"
           id="g124"><path
             id="path126"
             style="fill:#232323;fill-opacity:1;fill-rule:nonzero;stroke:none"
             d="M 0,0 -1.159,2.006 V 2 2.006 L -2.316,0 -2.576,-0.449 c 10e-4,-0.001 10e-4,-0.002 10e-4,-0.002 l -10.742,-18.608 -1.158,-2.006 1.158,-2.006 1.158,2.006 11,19.053 9.321,-16.144 v 0.006 l 1.68,-2.909 1.158,-2.006 1.158,2.006 -1.158,2.006 z" /></g><g
           transform="translate(248.4233,285.6017)"
           id="g128"><path
             id="path130"
             style="fill:#232323;fill-opacity:1;fill-rule:nonzero;stroke:none"
             d="M 0,0 -1.158,2.006 H -3.475 L -2.316,0 5.783,-14.028 H 8.1 Z" /></g><g
           transform="translate(206.709,285.5959)"
           id="g132"><path
             id="path134"
             style="fill:#232323;fill-opacity:1;fill-rule:nonzero;stroke:none"
             d="m 0,0 -8.1,-14.029 h 2.317 L 2.316,0 3.475,2.006 H 1.158 Z" /></g><g
           transform="translate(159.814,298.653)"
           id="g136"><path
             id="path138"
             style="fill:#232323;fill-opacity:1;fill-rule:nonzero;stroke:none"
             d="M 0,0 -5.216,-9.028 H 5.206 Z" /></g><g
           transform="translate(177.1909,300.6555)"
           id="g140"><path
             id="path142"
             style="fill:#232323;fill-opacity:1;fill-rule:nonzero;stroke:none"
             d="m 0,0 -1.737,3.008 -1.158,2.007 h -2.316 -28.96 l -11.585,20.066 10.423,18.054 h -2.316 l -9.266,-16.048 -1.158,-2.006 1.158,-2.006 10.427,-18.06 1.159,-2.007 h 2.316 28.96 l 2.895,-5.014 -8.107,-14.042 h -12.746 -2.316 -13.889 l 1.158,-2.006 h 13.889 2.316 10.43 2.316 l 1.158,2.006 L 0,-4.012 1.159,-2.006 Z" /></g><g
           transform="translate(170.8296,343.7907)"
           id="g144"><path
             id="path146"
             style="fill:#232323;fill-opacity:1;fill-rule:nonzero;stroke:none"
             d="m 0,0 -5.212,-9.027 h 2.316 L 2.316,0 Z" /></g></g></g></g></svg>